ffmpeg version 3.4.8-0ubuntu0.2 Copyright (c) 2000-2020 the FFmpeg developers
  built with gcc 7 (Ubuntu 7.5.0-3ubuntu1~18.04)
  configuration: --prefix=/usr --extra-version=0ubuntu0.2 --toolchain=hardened --libdir=/usr/lib/x86_64-linux-gnu --incdir=/usr/include/x86_64-linux-gnu --enable-gpl --disable-stripping --enable-avresample --enable-avisynth --enable-gnutls --enable-ladspa --enable-libass --enable-libbluray --enable-libbs2b --enable-libcaca --enable-libcdio --enable-libflite --enable-libfontconfig --enable-libfreetype --enable-libfribidi --enable-libgme --enable-libgsm --enable-libmp3lame --enable-libmysofa --enable-libopenjpeg --enable-libopenmpt --enable-libopus --enable-libpulse --enable-librubberband --enable-librsvg --enable-libshine --enable-libsnappy --enable-libsoxr --enable-libspeex --enable-libssh --enable-libtheora --enable-libtwolame --enable-libvorbis --enable-libvpx --enable-libwavpack --enable-libwebp --enable-libx265 --enable-libxml2 --enable-libxvid --enable-libzmq --enable-libzvbi --enable-omx --enable-openal --enable-opengl --enable-sdl2 --enable-libdc1394 --enable-libdrm --enable-libiec61883 --enable-chromaprint --enable-frei0r --enable-libopencv --enable-libx264 --enable-shared
  libavutil      55. 78.100 / 55. 78.100
  libavcodec     57.107.100 / 57.107.100
  libavformat    57. 83.100 / 57. 83.100
  libavdevice    57. 10.100 / 57. 10.100
  libavfilter     6.107.100 /  6.107.100
  libavresample   3.  7.  0 /  3.  7.  0
  libswscale      4.  8.100 /  4.  8.100
  libswresample   2.  9.100 /  2.  9.100
  libpostproc    54.  7.100 / 54.  7.100
[rawvideo @ 0x56267113fa20] Estimating duration from bitrate, this may be inaccurate
Input #0, rawvideo, from '../../SVC-Encoder-20220109T061506Z-001/SVC-Encoder/Dataset/RollerCoaster/ERP_8x8/tile_yuv/Tile_33_480x240.yuv':
  Duration: 00:00:10.00, start: 0.000000, bitrate: 41472 kb/s
    Stream #0:0: Video: rawvideo (I420 / 0x30323449), yuv420p, 480x240, 41472 kb/s, 30 tbr, 30 tbn, 30 tbc
Stream mapping:
  Stream #0:0 -> #0:0 (rawvideo (native) -> h264 (libx264))
Press [q] to stop, [?] for help
[libx264 @ 0x56267114cc60] using cpu capabilities: MMX2 SSE2Fast LZCNT SSSE3 SSE4.2 AVX
[libx264 @ 0x56267114cc60] profile High, level 2.1
Output #0, rawvideo, to 'RollerCoaster_Tile_33_480x240_x264_QP_32.h264':
  Metadata:
    encoder         : Lavf57.83.100
    Stream #0:0: Video: h264 (libx264), yuv420p, 480x240, q=-1--1, 30 fps, 30 tbn, 30 tbc
    Metadata:
      encoder         : Lavc57.107.100 libx264
    Side data:
      cpb: bitrate max/min/avg: 0/0/0 buffer size: 0 vbv_delay: -1
frame=  157 fps=0.0 q=38.0 PSNR=Y:nan U:nan V:nan *:nan size=      74kB time=00:00:03.80 bitrate= 160.2kbits/s speed=7.58x    frame=  300 fps=280 q=38.0 LPSNR=Y:inf U:inf V:inf *:inf size=     181kB time=00:00:09.93 bitrate= 149.2kbits/s speed=9.29x    
video:181kB audio:0kB subtitle:0kB other streams:0kB global headers:0kB muxing overhead: 0.000000%
[libx264 @ 0x56267114cc60] frame I:2     Avg QP:29.52  size: 12340  PSNR Mean Y:36.02 U:43.89 V:46.43 Avg:37.52 Global:37.45
[libx264 @ 0x56267114cc60] frame P:76    Avg QP:31.50  size:  1583  PSNR Mean Y:34.17 U:44.28 V:46.33 Avg:35.76 Global:35.72
[libx264 @ 0x56267114cc60] frame B:222   Avg QP:37.48  size:   181  PSNR Mean Y:34.01 U:44.12 V:46.26 Avg:35.60 Global:35.58
[libx264 @ 0x56267114cc60] consecutive B-frames:  1.3%  0.0%  0.0% 98.7%
[libx264 @ 0x56267114cc60] mb I  I16..4:  3.6% 71.3% 25.1%
[libx264 @ 0x56267114cc60] mb P  I16..4:  0.0%  0.0%  0.0%  P16..4: 43.3% 18.8%  7.9%  0.0%  0.0%    skip:30.0%
[libx264 @ 0x56267114cc60] mb B  I16..4:  0.0%  0.0%  0.0%  B16..8: 33.6%  0.6%  0.0%  direct: 0.0%  skip:65.7%  L0:29.8% L1:69.0% BI: 1.2%
[libx264 @ 0x56267114cc60] 8x8 transform intra:71.1% inter:65.2%
[libx264 @ 0x56267114cc60] coded y,uvDC,uvAC intra: 91.9% 71.9% 14.9% inter: 5.8% 2.2% 0.0%
[libx264 @ 0x56267114cc60] i16 v,h,dc,p:  8%  8% 62% 22%
[libx264 @ 0x56267114cc60] i8 v,h,dc,ddl,ddr,vr,hd,vl,hu:  6% 12% 17%  6% 12%  6% 18% 14%  8%
[libx264 @ 0x56267114cc60] i4 v,h,dc,ddl,ddr,vr,hd,vl,hu:  8% 11% 11%  7% 16%  5% 23% 14%  5%
[libx264 @ 0x56267114cc60] i8c dc,h,v,p: 50% 20% 17% 13%
[libx264 @ 0x56267114cc60] Weighted P-Frames: Y:1.3% UV:0.0%
[libx264 @ 0x56267114cc60] ref P L0: 66.5% 16.9% 14.4%  2.2%  0.0%
[libx264 @ 0x56267114cc60] ref B L0: 93.5%  6.0%  0.5%
[libx264 @ 0x56267114cc60] ref B L1: 91.0%  9.0%
[libx264 @ 0x56267114cc60] PSNR Mean Y:34.063 U:44.159 V:46.279 Avg:35.655 Global:35.628 kb/s:148.16
